<svg xmlns="http://www.w3.org/2000/svg" version="1.1" xmlns:xlink="http://www.w3.org/1999/xlink" xmlns:svgjs="http://svgjs.dev/svgjs" width="100%" height="100%" viewBox="0 0 1000 600"><rect width="1000" height="600" x="0" y="0" fill="#e2d1f9"/><g><circle r="166.66666666666666" cx="285.81888834635413" cy="308.0410866729362" fill="#317773" transform="matrix(1.049078304287177,0,0,1.049078304287177,0,-23.15923003164869)"/><path d="M284.514175749988 383.0410597327518L284.514175749988 383.0410597327518Q268.91453664992633 383.0410597327518 259.35637627647816 373.43781369716464Q249.79821590302996 363.8796533237165 245.3798210134171 349.76784107423873Q241.00651178594316 335.65602882476094 241.00651178594316 321.99507319667225L241.00651178594316 321.99507319667225Q241.00651178594316 306.4405197587495 244.25267945994443 290.6605380101322Q247.4988471339457 274.92564192365376 254.48712476547624 261.9409712276487Q261.47540239700675 248.9563005316436 272.1607043239276 241.02122399519607Q282.89109191298735 233.0410617966096 297.4988464459931 233.0410617966096L297.4988464459931 233.0410617966096Q307.86854873794164 233.0410617966096 313.72968481599946 239.21779750963978Q319.5908208940573 245.39453322267 319.5908208940573 257.3873193516191L319.5908208940573 257.3873193516191Q319.5908208940573 273.6181577216255 311.6106586954709 286.1519717962416Q303.6755821590233 298.6407002087186 291.63771036793526 306.4405197587495Q279.6449242389861 314.1952536466414 266.66025354298097 317.1258216856703L266.66025354298097 317.1258216856703L266.66025354298097 318.74890552267095Q266.66025354298097 332.0491758536484 269.4104789334543 343.5911053612085Q272.1607043239276 355.1330348687686 278.51778268551345 362.0762268381602Q284.8297753849604 369.06450446969075 295.2445633390478 369.06450446969075L295.2445633390478 369.06450446969075Q307.86854873794164 369.06450446969075 314.7215693830554 358.51445952918664Q321.5295043660303 347.9644145886824 325.4068713099763 331.73357621867615L325.4068713099763 331.73357621867615Q325.7224709449486 330.4260920166478 326.53401286344894 329.2989504631752Q327.34555478194926 328.17180890970246 328.02183971403286 328.17180890970246L328.02183971403286 328.17180890970246Q330.9524077530618 328.17180890970246 330.5917224559505 332.40986115075964L330.5917224559505 332.40986115075964Q329.6449235510335 341.15647960570755 326.71435551200454 348.9562991557384Q323.78378747297563 356.75611870576927 320.5376197989744 362.2565694867159L320.5376197989744 362.2565694867159Q314.3608840859442 372.31067214369205 305.7946082795519 377.67586593822193Q297.18324681102075 383.0410597327518 284.514175749988 383.0410597327518ZM266.97585317795335 309.32600213563956L266.97585317795335 309.6866874327508Q277.39064113204074 307.07171902869413 285.1453750199327 299.45224212721894Q292.9451945699635 291.83276522574374 297.3185037974375 281.41797727165635Q301.7368986870503 271.0482749797078 301.7368986870503 260.317887390648L301.7368986870503 260.317887390648L301.7368986870503 258.69480355364743Q301.7368986870503 252.87875313772847 299.93347220149406 247.6488163296153Q298.1300457159378 242.46396518364108 293.2607942049359 242.46396518364108L293.2607942049359 242.46396518364108Q287.4447437890169 242.46396518364108 283.071434561543 248.1447586131433Q278.6530396719302 253.8255520426455 275.58721464648454 262.6172561597323Q272.52138962103885 271.3638746146802 270.537620486927 280.7867780017117Q268.598937014954 290.2096813887431 267.7873950964537 297.964415276635Q266.97585317795335 305.76423482666587 266.97585317795335 309.32600213563956L266.97585317795335 309.32600213563956Z " fill="#e2d1f9" transform="matrix(1.049078304287177,0,0,1.049078304287177,0,-23.15923003164869)"/><path d="M554.0126947110734 338.9234195255698L554.0126947110734 338.9234195255698Q547.4893159286927 338.9234195255698 543.4923323972916 334.9075822982659Q539.4953488658907 330.91059876686495 537.6476866674129 325.00939194927776Q535.818878164838 319.10818513169045 535.818878164838 313.39551527313154L535.818878164838 313.39551527313154Q535.818878164838 306.89099018665354 537.176344269842 300.29219662066134Q538.5338103748462 293.712256750572 541.4561332397856 288.2823923305557Q544.3784561047249 282.85252791053927 548.8467820336969 279.53427743164036Q553.3339616585715 276.1971732568386 559.4425591310899 276.1971732568386L559.4425591310899 276.1971732568386Q563.7789091887419 276.1971732568386 566.2298896561103 278.7801295955269Q568.6808701234789 281.3630859342153 568.6808701234789 286.3781690443693L568.6808701234789 286.3781690443693Q568.6808701234789 293.1654995693898 565.3437659486772 298.40682703037794Q562.0255154697783 303.6293007954631 556.9915786637214 306.89099018665354Q551.9764955535674 310.1338258819411 546.5466311335509 311.35931611562535L546.5466311335509 311.35931611562535L546.5466311335509 312.0380491681274Q546.5466311335509 317.5998894594636 547.6967065836238 322.42643561058935Q548.8467820336969 327.252981761715 551.5051531559965 330.1564509307516Q554.1446705823934 333.07877379569095 558.4998743359481 333.07877379569095L558.4998743359481 333.07877379569095Q563.7789091887419 333.07877379569095 566.6446709659728 328.6670089544276Q569.4915790473008 324.2552441131643 571.1129968949447 317.4679135881438L571.1129968949447 317.4679135881438Q571.2449727662645 316.9211564069616 571.5843392925154 316.4498140093907Q571.9237058187665 315.9784716118198 572.206511257309 315.9784716118198L572.206511257309 315.9784716118198Q573.4320014909933 315.9784716118198 573.2811719237706 317.7507190266863L573.2811719237706 317.7507190266863Q572.885244309811 321.40833603183626 571.6597540761268 324.6700254230267Q570.4342638424425 327.9317148142171 569.0767977374385 330.2318657143629L569.0767977374385 330.2318657143629Q566.4938413987501 334.4362399006951 562.9116391772116 336.67982971313245Q559.31058325977 338.9234195255698 554.0126947110734 338.9234195255698ZM546.6786070048709 308.0976267244349L546.6786070048709 308.2484562916576Q551.0338107584256 307.15494192929316 554.2766464537132 303.9686673217142Q557.5383358449036 300.7823927141351 559.3671443474785 296.4271889605802Q561.2148065459564 292.0908389029282 561.2148065459564 287.60365927805356L561.2148065459564 287.60365927805356L561.2148065459564 286.92492622555153Q561.2148065459564 284.4927994540859 560.460658709843 282.30577072935705Q559.7065108737296 280.13759570053105 557.6703117162234 280.13759570053105L557.6703117162234 280.13759570053105Q555.2381849447577 280.13759570053105 553.4093764421827 282.5131613842882Q551.561714243705 284.88872706804534 550.2796629223122 288.5651977690982Q548.9976116009195 292.22281477424815 548.1680489811947 296.1632372179406Q547.3573400573728 300.10365966163306 547.0179735311218 303.3464953569206Q546.6786070048709 306.60818474811106 546.6786070048709 308.0976267244349L546.6786070048709 308.0976267244349ZM609.5368291449217 337.0191962393834L609.5368291449217 337.0191962393834Q604.6537219060876 337.0191962393834 602.1273266551077 332.94679792437114Q599.6197851000306 328.8743996093589 598.7336613925975 322.5018503942007Q597.866391381067 316.11044748313975 597.866391381067 309.19114108679935L597.866391381067 309.19114108679935Q596.0941439662006 315.7145198691802 593.3792117561925 322.0870690843383Q590.6642795461842 328.45961829949647 587.3460290672854 332.6828461817314Q584.0089248924835 336.8872203680636 580.3513078873336 336.8872203680636L580.3513078873336 336.8872203680636Q577.0896184961432 336.8872203680636 575.053419338637 333.8329216318043Q573.0172201811308 330.77862289554514 572.0745353859892 325.74468608948825Q571.1129968949447 320.72960297933423 571.1129968949447 314.8849572494554L571.1129968949447 314.8849572494554Q571.1129968949447 310.6805830631233 571.7917299474466 305.3826945144267Q572.4704629999487 300.10365966163306 573.9599049762726 294.80577111293644Q575.4682006484994 289.50788256423994 578.1077180748963 285.0961177229766Q580.7472355012931 280.68435288171327 584.6876579449856 277.96942067170505Q588.628080388678 275.25448846169684 594.0579448086944 275.25448846169684L594.0579448086944 275.25448846169684Q597.187658328565 275.25448846169684 599.0730279188485 276.611954566701L599.0730279188485 276.611954566701Q599.355833357391 269.4098427318181 599.7517609713506 262.77334177402025Q600.166542281213 256.11798712031964 600.7132994623951 252.30954054794697L600.7132994623951 252.30954054794697Q601.1092270763546 249.72658420925862 601.8633749124681 246.48374851397105Q602.6175227485815 243.22205912278062 604.0315499412941 240.16776038652142Q605.4644308299095 237.11346165026217 607.5571910751241 235.07726249275603Q609.6688050162415 233.0410633352499 612.6476889688895 233.0410633352499L612.6476889688895 233.0410633352499Q616.4561355412621 233.0410633352499 618.3603588274484 234.86987183782486Q620.2645821136348 236.69868034039982 620.9998762538453 239.48902733401937Q621.7540240899586 242.26052063173606 621.7540240899586 245.39023415160662L621.7540240899586 245.39023415160662Q621.7540240899586 247.1624815664731 621.6220482186388 248.99129006904806Q621.4712186514162 250.82009857162305 621.2072669087764 252.30954054794697L621.2072669087764 252.30954054794697Q620.3965579849546 258.96489520164766 618.0775533889059 266.9777159603524Q615.7774024887601 274.9905367190572 612.7231037525008 282.5131613842882Q609.6688050162415 290.05463974542215 606.8218969349136 295.48450416543847L606.8218969349136 295.48450416543847Q606.6899210635937 296.4271889605802 606.539091496371 299.68887835177065Q606.4071156250512 302.9505677429611 606.4071156250512 307.2869178006131L606.4071156250512 307.2869178006131Q606.4071156250512 311.35931611562535 606.6145062799824 315.7710809568887Q606.8218969349136 320.182845798152 607.5006299874156 323.9158775869133Q608.1793630399177 327.6489093756745 609.3294384899906 330.0244750594318Q610.4795139400635 332.4000407431889 612.3837372262499 332.4000407431889L612.3837372262499 332.4000407431889Q614.2879605124361 332.4000407431889 615.7774024887601 330.571232240614Q617.266844465084 328.74242373803895 618.4923346987682 326.02749152803074Q619.7178249324525 323.31255931802264 620.4531190726631 320.80501776294557Q621.2072669087764 318.27862251196575 621.6220482186388 317.07198597418426L621.6220482186388 317.07198597418426Q621.8859999612785 315.9784716118198 622.6967088851004 315.9784716118198L622.6967088851004 315.9784716118198Q623.3754419376024 315.9784716118198 623.3754419376024 317.4679135881438L623.3754419376024 317.4679135881438L623.3754419376024 318.1466466406458Q623.3754419376024 321.82311734169866 621.6786093063473 326.234882182962Q619.9817766750922 330.6466470242252 616.9274779388329 333.8329216318043Q613.8731792025737 337.0191962393834 609.5368291449217 337.0191962393834ZM606.539091496371 288.697173640418L606.539091496371 289.50788256423994Q609.1220478350594 283.9460422729037 611.4410524311081 276.95132109295196Q613.7412033312539 269.95659991300033 615.3060600911892 262.6225122067976Q616.8709168511245 255.30727819649772 616.8709168511245 248.91587528543673L616.8709168511245 248.91587528543673Q616.8709168511245 247.84121461897516 616.8709168511245 246.87967612793057Q616.8709168511245 245.93699133278884 616.7200872839019 244.97545284174427L616.7200872839019 244.97545284174427Q616.588111412582 243.0900832514608 615.9093783600799 241.65720236284537Q615.2306453075778 240.22432147422992 614.1559846411162 240.22432147422992L614.1559846411162 240.22432147422992Q613.6092274599341 240.22432147422992 612.7985185361122 241.11044518166315Q611.9689559163875 241.99656888909638 611.1582469925655 244.29671978924222L611.1582469925655 244.29671978924222Q610.762319378606 245.5222100229265 610.1401474138124 249.80199899286995Q609.5368291449217 254.08178796281342 608.9146571801282 259.85101890908084Q608.3113389112375 265.62024985534833 607.7645817300553 271.5214566729355Q607.2178245488731 277.42266349052284 606.8784580226221 282.11723377032865Q606.539091496371 286.7929503542317 606.539091496371 288.697173640418L606.539091496371 288.697173640418ZM585.1024392548479 325.74468608948825L585.1024392548479 325.74468608948825Q587.4025901549937 325.74468608948825 589.4387893124999 322.42643561058935Q591.4749884700061 319.10818513169045 593.1718211012612 314.35705376417604Q594.8686537325163 309.60592239666175 595.9621680948808 305.3826945144267L595.9621680948808 305.3826945144267Q597.4516100712046 299.9528300944104 598.0549283400954 294.4664045866855Q598.677100304889 288.9611253830577 598.8090761762088 283.3992850917215L598.8090761762088 283.3992850917215L598.9410520475287 279.59083851934884Q598.1303431237068 279.1949109053893 597.0368287613423 279.1949109053893L597.0368287613423 279.1949109053893Q594.0579448086944 279.1949109053893 590.9282312888239 282.11723377032865Q587.8173714648561 285.02070293936526 585.9131481786699 288.9611253830577L585.9131481786699 288.9611253830577Q583.4621677113014 294.1270380604344 582.3120922612284 301.0463444567747Q581.1620168111556 307.9656508531151 581.1620168111556 314.07424832563356L581.1620168111556 314.07424832563356Q581.1620168111556 315.0357868166782 581.1620168111556 316.11044748313975Q581.1620168111556 317.20396184550407 581.2939926824754 318.1466466406458L581.2939926824754 318.1466466406458Q581.5767981210179 322.2190449556582 582.6514587874794 323.99129237052466Q583.7449731498439 325.74468608948825 585.1024392548479 325.74468608948825ZM639.9478406361942 338.9234195255698L639.9478406361942 338.9234195255698Q633.4244618538133 338.9234195255698 629.4274783224124 334.9075822982659Q625.4116410951086 330.91059876686495 623.5828325925336 325.00939194927776Q621.7540240899586 319.10818513169045 621.7540240899586 313.39551527313154L621.7540240899586 313.39551527313154Q621.7540240899586 306.89099018665354 623.1114901949627 300.29219662066134Q624.4689562999669 293.712256750572 627.3912791649062 288.2823923305557Q630.2947483339428 282.85252791053927 634.7819279588175 279.53427743164036Q639.2691075836922 276.1971732568386 645.3777050562106 276.1971732568386L645.3777050562106 276.1971732568386Q649.7140551138626 276.1971732568386 652.1650355812311 278.7801295955269Q654.5971623526967 281.3630859342153 654.5971623526967 286.3781690443693L654.5971623526967 286.3781690443693Q654.5971623526967 293.1654995693898 651.2789118737978 298.40682703037794Q647.9418076989962 303.6293007954631 642.926724588842 306.89099018665354Q637.911641478688 310.1338258819411 632.4817770586716 311.35931611562535L632.4817770586716 311.35931611562535L632.4817770586716 312.0380491681274Q632.4817770586716 317.5998894594636 633.6318525087446 322.42643561058935Q634.7819279588175 327.252981761715 637.4214453852143 330.1564509307516Q640.079816507514 333.07877379569095 644.416166565166 333.07877379569095L644.416166565166 333.07877379569095Q649.7140551138626 333.07877379569095 652.5609631951907 328.6670089544276Q655.4078712765187 324.2552441131643 657.0481428200653 317.4679135881438L657.0481428200653 317.4679135881438Q657.1801186913851 316.9211564069616 657.5194852176361 316.4498140093907Q657.8588517438872 315.9784716118198 658.1228034865269 315.9784716118198L658.1228034865269 315.9784716118198Q659.3482937202111 315.9784716118198 659.2163178488912 317.7507190266863L659.2163178488912 317.7507190266863Q658.8015365390289 321.40833603183626 657.5949000012475 324.6700254230267Q656.3694097675632 327.9317148142171 655.0119436625591 330.2318657143629L655.0119436625591 330.2318657143629Q652.4289873238707 334.4362399006951 648.8279314064293 336.67982971313245Q645.226875488988 338.9234195255698 639.9478406361942 338.9234195255698ZM632.6137529299915 308.0976267244349L632.6137529299915 308.2484562916576Q636.9501029876435 307.15494192929316 640.2117923788338 303.9686673217142Q643.4734817700243 300.7823927141351 645.3022902725992 296.4271889605802Q647.1310987751742 292.0908389029282 647.1310987751742 287.60365927805356L647.1310987751742 287.60365927805356L647.1310987751742 286.92492622555153Q647.1310987751742 284.4927994540859 646.3958046349636 282.30577072935705Q645.6416567988502 280.13759570053105 643.6054576413442 280.13759570053105L643.6054576413442 280.13759570053105Q641.1544771739756 280.13759570053105 639.3256686714006 282.5131613842882Q637.4968601688257 284.88872706804534 636.2148088474329 288.5651977690982Q634.9139038301373 292.22281477424815 634.1031949063154 296.1632372179406Q633.2924859824935 300.10365966163306 632.9531194562425 303.3464953569206Q632.6137529299915 306.60818474811106 632.6137529299915 308.0976267244349L632.6137529299915 308.0976267244349ZM667.3611144789159 337.4339775492458L667.3611144789159 337.4339775492458Q665.4568911927296 337.4339775492458 664.1748398713368 336.0010966606303Q662.8739348540413 334.5682157720149 662.8739348540413 331.1745505095047L662.8739348540413 331.1745505095047Q662.8739348540413 330.6466470242252 662.8739348540413 330.0244750594318Q662.8739348540413 329.421156790541 663.0247644212639 328.74242373803895L663.0247644212639 328.74242373803895Q663.2887161639036 326.29144327067047 663.6280826901547 321.9550932130185Q663.9674492164056 317.5998894594636 664.1748398713368 312.1700250394473Q664.382230526268 306.74016061943087 664.382230526268 301.31029619941444L664.382230526268 301.31029619941444Q664.382230526268 295.6164800367584 664.042864000017 290.52598214299303Q663.7034974737659 285.43548424922756 662.8739348540413 282.4566002965797L662.8739348540413 282.4566002965797Q663.9674492164056 282.17379485803724 665.7396966312721 280.9483046243529Q667.4930903502358 279.7416680865715 669.397313636422 279.3268867767091L669.397313636422 279.3268867767091Q669.8120949462844 279.1949109053893 670.4908279987865 279.1949109053893L670.4908279987865 279.1949109053893Q672.7909788989323 279.1949109053893 673.394297167823 281.627037676855Q674.0164691326165 284.0780181442235 674.0164691326165 287.60365927805356L674.0164691326165 287.60365927805356Q674.0164691326165 290.05463974542215 673.9410543490052 293.37289022432105Q673.8844932612967 296.7099943991228 673.6016878227541 299.14212117058844L673.6016878227541 299.14212117058844Q675.0911297990781 294.80577111293644 676.8633772139445 291.61949650535735Q678.6356246288111 288.4143682018755 680.6718237863172 285.43548424922756L680.6718237863172 285.43548424922756Q682.7080229438234 282.30577072935705 685.0081738439692 279.25147199309777Q687.308324744115 276.1971732568386 691.2487471878075 276.1971732568386L691.2487471878075 276.1971732568386Q695.3211455028198 276.1971732568386 696.5466357365041 278.9121054668468Q697.7721259701883 281.627037676855 697.7721259701883 284.88872706804534L697.7721259701883 284.88872706804534Q697.7721259701883 286.6609744829119 697.6401500988685 288.2258312428471Q697.4893205316458 289.77183430687955 697.3573446603259 291.1293004118837L697.3573446603259 291.1293004118837Q697.3573446603259 292.0908389029282 696.9614170463664 296.08782243432927Q696.5466357365041 300.10365966163306 696.1318544266417 305.45810929803815Q695.7359268126821 310.81255893444313 695.7359268126821 316.24242335445956L695.7359268126821 316.24242335445956Q695.7359268126821 317.7507190266863 695.8679026840019 320.39023645308316Q695.9998785553219 323.02975387948004 696.4146598651841 325.6881250017798Q696.8105874791437 328.32764242817666 697.8286870578968 330.1564509307516Q698.8467866366499 332.0041131292294 700.6190340515163 332.0041131292294L700.6190340515163 332.0041131292294Q701.7125484138808 332.0041131292294 703.0700145188848 331.1745505095047L703.0700145188848 331.1745505095047Q704.5594564952088 330.0998898430431 705.7095319452817 328.32764242817666Q706.8596073953546 326.57424870921295 707.5383404478567 324.8020012943465L707.5383404478567 324.8020012943465Q708.0850976290388 323.57651106066226 708.6318548102211 322.0870690843383Q709.1786119914033 320.5976271080144 709.5745396053628 318.9573555644678L709.5745396053628 318.9573555644678Q710.121296786545 317.335937716824 711.0639815816868 317.335937716824L711.0639815816868 317.335937716824Q711.7427146341888 317.335937716824 711.7427146341888 318.69340382182804L711.7427146341888 318.69340382182804L711.7427146341888 319.24016100301026Q711.7427146341888 320.182845798152 711.4033481079379 321.672287774476Q711.0639815816868 323.1805834467027 710.5360780964074 324.6700254230267L710.5360780964074 324.6700254230267Q708.8958065528608 329.6851085331807 705.7095319452817 333.418140321942Q702.5232573377026 337.1511721107032 696.8105874791437 337.1511721107032L696.8105874791437 337.1511721107032Q693.0209946026739 337.1511721107032 690.9093806615564 334.22884924576385Q688.8166204163418 331.32538007672736 687.8550819252972 326.7062245805329L687.8550819252972 326.7062245805329Q687.308324744115 324.12326824184447 687.1197877850867 321.54031190315607Q686.9123971301555 318.9573555644678 686.9123971301555 316.39325292168223L686.9123971301555 316.39325292168223Q686.9123971301555 310.0018500106213 687.7985208375887 303.6858618831716Q688.6657908491192 297.38872745162485 688.6657908491192 291.544081721746L688.6657908491192 291.544081721746Q688.6657908491192 289.63985843555974 688.1944484515483 287.9430258043046Q687.7231060539774 286.2461931730495 686.1016882063336 286.2461931730495L686.1016882063336 286.2461931730495Q684.461416662787 286.2461931730495 682.1612657626412 289.37590669292L682.1612657626412 289.37590669292Q679.8422611665925 292.35479064556796 677.4101343951268 298.12402159183534Q674.9591539277583 303.89325253810284 673.3377360801145 311.1519254606942Q671.6974645365678 318.4294520791884 671.6974645365678 326.02749152803074L671.6974645365678 326.02749152803074Q671.6974645365678 330.6466470242252 672.5270271562925 335.3977783917396L672.5270271562925 335.3977783917396Q671.565488665248 336.07651144424165 670.0760466889241 336.7552444967438Q668.5866047126002 337.4339775492458 667.3611144789159 337.4339775492458ZM722.8852489127642 337.0191962393834L722.8852489127642 337.0191962393834Q718.8128505977519 337.0191962393834 716.3053090426748 334.4362399006951Q713.778913791695 331.8532835620067 712.4214476866908 327.9317148142171Q711.0639815816868 323.99129237052466 710.5926391841159 319.7869181841925Q710.121296786545 315.56369030195754 710.121296786545 312.32085460666997L710.121296786545 312.32085460666997L710.121296786545 310.2846554491638Q710.2532726578648 308.64438390561713 710.3852485291847 304.1760579766453Q710.5360780964074 299.68887835177065 710.800029839047 293.65569566286354Q711.0639815816868 287.60365927805356 711.610738762869 281.3630859342153L711.610738762869 281.3630859342153L707.4063645765368 281.3630859342153Q706.3128502141724 281.3630859342153 706.3128502141724 280.00561982921124L706.3128502141724 280.00561982921124Q706.3128502141724 279.3268867767091 706.8030463076461 278.57273894059574Q707.274388705217 277.83744480038524 707.953121757719 277.83744480038524L707.953121757719 277.83744480038524L711.8935442014115 277.83744480038524Q712.4214476866908 271.4460418893242 713.100180739193 266.29898290785036Q713.778913791695 261.13307023047366 714.7404522827395 258.96489520164766L714.7404522827395 258.96489520164766Q715.4191853352417 257.4754532253237 717.1725790542052 256.3253777752508Q718.9448264690717 255.15644862927502 721.9237104217196 255.15644862927502L721.9237104217196 255.15644862927502Q722.7532730414442 255.15644862927502 723.7713726201974 255.30727819649772Q724.7894721989504 255.43925406781756 725.7321569940922 255.7032058104572L725.7321569940922 255.7032058104572Q725.0534239415902 258.0222104065059 724.1673002341569 264.055393095413Q723.2811765267237 270.08857578432014 722.6024434742216 277.83744480038524L722.6024434742216 277.83744480038524L733.4621723142544 277.83744480038524Q734.6876625479387 277.83744480038524 734.6876625479387 279.3268867767091L734.6876625479387 279.3268867767091Q734.6876625479387 280.00561982921124 734.2917349339791 280.68435288171327Q733.8769536241168 281.3630859342153 733.0662447002949 281.3630859342153L733.0662447002949 281.3630859342153L722.2065158602621 281.3630859342153Q721.52778280776 288.8291495117378 721.1130014978977 296.7665554868313Q720.7170738839382 304.7039614619247 720.5662443167155 311.35931611562535L720.5662443167155 311.35931611562535L720.5662443167155 314.48902963549597Q720.5662443167155 318.014670769326 720.849049755258 322.2190449556582Q721.1130014978977 326.4234191419903 722.2065158602621 329.421156790541Q723.2811765267237 332.4000407431889 725.4682052514526 332.4000407431889L725.4682052514526 332.4000407431889L725.6001811227724 332.4000407431889Q726.6748417892339 332.4000407431889 727.9757468065295 331.32538007672736Q729.2577981279222 330.2318657143629 730.7472401042462 327.252981761715L730.7472401042462 327.252981761715Q731.8407544666106 325.3487584755287 732.7268781740439 322.6903873532291Q733.6130018814771 320.0508699268322 734.5556866766188 317.07198597418426L734.5556866766188 317.07198597418426Q735.1024438578011 315.8464957405 735.6492010389833 315.8464957405L735.6492010389833 315.8464957405Q736.3279340914853 315.8464957405 736.3279340914853 317.4679135881438L736.3279340914853 317.4679135881438L736.3279340914853 318.014670769326Q736.0451286529427 321.54031190315607 734.423710805299 326.02749152803074Q732.7834392617524 330.49581745700266 729.8799700927158 333.757506848193Q726.9576472277764 337.0191962393834 722.8852489127642 337.0191962393834ZM759.9327613618344 337.0191962393834L759.9327613618344 337.0191962393834Q755.4644354328626 337.0191962393834 752.8814790941742 334.09687337444404Q750.2985227554858 331.1745505095047 749.2804231767328 326.4988339256016Q748.2623235979796 321.82311734169866 748.2623235979796 316.39325292168223L748.2623235979796 316.39325292168223Q748.2623235979796 310.5486071918035 749.0164714340931 304.9113521168558Q749.7517655743037 299.27409704190836 750.6378892817369 294.93774698425625Q751.52401298917 290.60139692660437 751.9387942990325 288.9611253830577L751.9387942990325 288.9611253830577Q748.1303477266598 288.697173640418 745.9621726978338 287.7356351493735Q743.7939976690079 286.7929503542317 742.2857019967811 285.43548424922756L742.2857019967811 285.43548424922756Q741.7577985115017 291.9588630316084 740.588869365526 299.4249266091309Q739.4387939154531 306.89099018665354 737.9493519391291 313.7348817993825Q736.4599099628052 320.5976271080144 734.6876625479387 325.4807343468485L734.6876625479387 325.4807343468485Q734.1409053667566 327.252981761715 732.9342688289751 327.252981761715L732.9342688289751 327.252981761715Q731.9727303379306 327.252981761715 731.9727303379306 326.02749152803074L731.9727303379306 326.02749152803074Q731.9727303379306 325.74468608948825 732.0481451215418 325.3487584755287Q732.1047062092504 324.9339771656663 732.255535776473 324.5380495517069L732.255535776473 324.5380495517069Q734.423710805299 318.27862251196575 735.9131527816229 310.88797371805447Q737.4025947579469 303.4973249241433 738.2133036817688 296.55916483190015Q739.0428663014935 289.63985843555974 739.0428663014935 285.02070293936526L739.0428663014935 285.02070293936526L739.0428663014935 283.5312609630413Q735.6492010389833 282.0418189867173 734.084344279048 279.1949109053893Q732.5194875191127 276.34800282406127 732.5194875191127 273.76504648537286L732.5194875191127 273.76504648537286Q732.5194875191127 271.8608231991866 733.273635355226 270.3713812228626Q734.0089294954366 268.88193924653876 735.4983714717606 268.88193924653876L735.4983714717606 268.88193924653876L735.7811769103031 268.88193924653876Q737.6854001964895 268.88193924653876 739.1748421728133 271.5214566729355Q740.6642841491373 274.1609740993324 741.606968944279 277.36610240281436Q742.5685074353236 280.55237701039346 742.5685074353236 282.4566002965797L742.5685074353236 282.4566002965797Q744.1899252829675 283.6632368343611 746.1695633527651 284.2099940155433Q748.1303477266598 284.75675119672553 749.487813831664 284.75675119672553L749.487813831664 284.75675119672553Q751.2600612465304 284.75675119672553 751.7879647318098 284.2099940155433L751.7879647318098 284.2099940155433Q752.8814790941742 283.13533334908175 754.4463358541094 281.09913419157556Q756.0111926140447 279.0629350340695 759.404857876555 279.0629350340695L759.404857876555 279.0629350340695Q761.7050087767009 279.0629350340695 764.9666981678912 280.42040113907353L764.9666981678912 280.42040113907353Q763.3264266243447 283.8140664015838 761.9689605193406 288.07500167562443Q760.6114944143364 292.35479064556796 759.6688096191947 297.10592201308225L759.6688096191947 297.10592201308225Q759.5368337478749 298.1994363754467 758.9900765666927 301.4611257666371Q758.4433193855104 304.7039614619247 758.0473917715509 308.92718934415973Q757.6326104616886 313.1315635304918 757.6326104616886 317.335937716824L757.6326104616886 317.335937716824Q757.6326104616886 323.31255931802264 758.9146617830813 327.8563000306058Q760.2155668003769 332.4000407431889 763.741207934207 332.4000407431889L763.741207934207 332.4000407431889Q765.909382963033 332.4000407431889 767.5496545065797 330.6466470242252Q769.1710723542234 328.8743996093589 770.3965625879077 326.234882182962Q771.6220528215919 323.57651106066226 772.4327617454138 321.0689695055852Q773.2434706692358 318.56142795050823 773.658251979098 317.07198597418426L773.658251979098 317.07198597418426Q773.9222037217378 315.8464957405 774.7329126455596 315.8464957405L774.7329126455596 315.8464957405Q775.4116456980618 315.8464957405 775.4116456980618 317.335937716824L775.4116456980618 317.335937716824L775.4116456980618 318.014670769326Q775.4116456980618 324.2552441131643 773.1680558856244 328.5350330831078Q770.9433197690898 332.81482205305133 767.3988249393569 334.9075822982659Q763.8731838055268 337.0191962393834 759.9327613618344 337.0191962393834ZM786.4033504094143 267.6564490128544L786.4033504094143 267.6564490128544Q783.8392477666288 267.6564490128544 781.8596096968312 265.75222572666814Q779.8988253229364 263.8480024404818 779.8988253229364 261.13307023047366L779.8988253229364 261.13307023047366Q779.8988253229364 258.41813802046545 781.8596096968312 256.5139147342791Q783.8392477666288 254.62854514399564 786.4033504094143 254.62854514399564L786.4033504094143 254.62854514399564Q789.1182826194225 254.62854514399564 791.0225059056089 256.5139147342791Q792.9267291917952 258.41813802046545 792.9267291917952 261.13307023047366L792.9267291917952 261.13307023047366Q792.9267291917952 263.8480024404818 791.0225059056089 265.75222572666814Q789.1182826194225 267.6564490128544 786.4033504094143 267.6564490128544ZM785.4606656142727 337.0191962393834L785.4606656142727 337.0191962393834Q780.5775583754385 337.0191962393834 777.7872113818189 332.8713831407598Q775.0157180841022 328.74242373803895 773.8467889381265 322.29445973926954Q772.6967134880535 315.8464957405 772.6967134880535 308.77635977693694L772.6967134880535 308.77635977693694Q772.6967134880535 302.9505677429611 773.3188854528471 297.4452885393333Q773.9222037217378 291.9588630316084 774.8083274291711 287.8110499329848Q775.6944511366042 283.6632368343611 776.5051600604262 281.9098431153975L776.5051600604262 281.9098431153975Q777.315868984248 280.26957157185086 779.144677486823 278.85554437913834Q780.973485989398 277.42266349052284 784.1031995092685 277.42266349052284L784.1031995092685 277.42266349052284Q785.875446924135 277.42266349052284 787.6288406430987 277.83744480038524L787.6288406430987 277.83744480038524Q786.2713745380945 282.58857616789953 784.3671512519082 290.9973245405638Q782.4817816616247 299.4249266091309 782.4817816616247 309.60592239666175L782.4817816616247 309.60592239666175Q782.4817816616247 313.1315635304918 782.6137575329445 317.12854706189273Q782.7457334042645 321.14438428919664 783.2924905854466 324.59461063941535Q783.8392477666288 328.0636906855369 784.9893232167018 330.2318657143629Q786.1393986667746 332.4000407431889 788.043621952961 332.4000407431889L788.043621952961 332.4000407431889L788.1755978242808 332.4000407431889Q789.2691121866452 332.4000407431889 790.5511635080379 331.32538007672736Q791.8332148294307 330.2318657143629 793.3415105016576 327.252981761715L793.3415105016576 327.252981761715Q795.3777096591637 323.31255931802264 797.1311033781272 317.07198597418426L797.1311033781272 317.07198597418426Q797.4139088166698 315.8464957405 798.2246177404917 315.8464957405L798.2246177404917 315.8464957405Q798.9033507929938 315.8464957405 798.9033507929938 317.4679135881438L798.9033507929938 317.4679135881438L798.9033507929938 318.014670769326Q798.6205453544512 321.54031190315607 796.9991275068074 326.02749152803074Q795.3777096591637 330.49581745700266 792.4553867942243 333.757506848193Q789.5330639292849 337.0191962393834 785.4606656142727 337.0191962393834ZM794.0202435541595 383.041067938203L793.6054622442972 383.041067938203Q788.8543308767829 383.041067938203 786.8935465028881 378.4219124420084Q784.9139084330905 373.80275694581394 784.9139084330905 367.01542642079346L784.9139084330905 367.01542642079346Q784.9139084330905 364.16851833946544 785.1967138716329 360.98224373188634Q785.4606656142727 357.79596912430725 786.0074227954548 354.66625560443674L786.0074227954548 354.66625560443674Q786.6861558479569 350.32990554678474 787.9116460816412 346.1066776645498Q789.1182826194225 341.9023034782176 790.4757487244266 338.11271060174784L790.4757487244266 338.11271060174784Q792.379972010613 332.6828461817314 794.7555376943702 327.8563000306058Q797.1311033781272 323.02975387948004 797.1311033781272 317.20396184550407L797.1311033781272 317.20396184550407L797.1311033781272 316.65720466432197Q797.1311033781272 308.64438390561713 796.5277851092366 301.72507750927684Q795.905613144443 294.80577111293644 795.0383431329127 289.77183430687955Q794.1522194254794 284.75675119672553 793.3415105016576 282.4566002965797L793.3415105016576 282.4566002965797Q796.0564427116657 281.627037676855 797.9418123019492 280.55237701039346Q799.8460355881356 279.458862648029 801.4863071316821 279.3268867767091L801.4863071316821 279.3268867767091L802.1650401841842 279.3268867767091Q804.7291428269697 279.3268867767091 805.4078758794718 281.966404203106Q806.0866089319737 284.6247753254057 806.2374384991965 288.2823923305557L806.2374384991965 288.2823923305557Q806.3694143705163 290.7333727979242 806.3694143705163 294.67379524161663Q806.3694143705163 298.5953639894062 806.5013902418362 303.3464953569206L806.5013902418362 303.3464953569206Q808.4056135280224 296.55916483190015 810.9885698667108 290.18661561674196Q813.5526725094963 283.8140664015838 816.682386029367 279.6662533029602Q819.8120995492375 275.51844020433657 823.054935244525 275.51844020433657L823.054935244525 275.51844020433657Q827.1273335595373 275.51844020433657 829.3709233719748 278.38420198156746Q831.614513184412 281.2311100628955 832.6326127631652 285.5108990328389Q833.6507123419182 289.77183430687955 833.8581029968494 294.0516232768231Q834.0654936517805 298.3314122467666 834.0654936517805 301.1783203280946L834.0654936517805 301.1783203280946Q834.0654936517805 306.89099018665354 832.8965645058048 312.999587659172Q831.7464890557319 319.10818513169045 829.2389475006548 324.3872199844841Q826.7314059455779 329.6851085331807 822.7155687182741 333.0222127079825Q818.718585186873 336.3404631868814 813.024769024217 336.3404631868814L813.024769024217 336.3404631868814Q809.0843465805245 336.3404631868814 807.0481474230183 334.7190453392376L807.0481474230183 334.7190453392376L807.0481474230183 340.6768132445334Q807.0481474230183 344.9000411267683 807.0481474230183 348.35026747698714Q807.0481474230183 351.8193475231087 806.9161715516985 353.9875225519347L806.9161715516985 353.9875225519347Q806.5013902418362 362.54710049182165 805.4078758794718 367.9769649118381L805.4078758794718 367.9769649118381Q804.0504097744677 374.6134658696359 801.3354775644594 378.8366937518708Q798.6205453544512 383.041067938203 794.0202435541595 383.041067938203L794.0202435541595 383.041067938203ZM810.9885698667108 332.6828461817314L810.9885698667108 332.6828461817314Q813.1567448955368 332.6828461817314 814.9101386145004 331.32538007672736L814.9101386145004 331.32538007672736Q818.039852134371 328.8743996093589 820.0006365082658 323.3691204057311Q821.9802745780635 317.8826948980062 822.7909835018853 312.4528304779898L822.7909835018853 312.4528304779898Q823.2057648117478 310.1338258819411 823.394301770776 306.89099018665354Q823.6016924257073 303.6293007954631 823.6016924257073 300.23563553295287L823.6016924257073 300.23563553295287Q823.6016924257073 294.39098980307415 822.6590076305655 289.7152732191711Q821.6974691395209 285.02070293936526 818.9825369295128 285.02070293936526L818.9825369295128 285.02070293936526Q817.3611190818689 285.02070293936526 815.6642864506139 287.88646471659615Q813.9674538193586 290.7333727979242 812.346035971715 295.35252829411866Q810.7057644281682 299.9528300944104 809.2917372354557 305.1941575553984Q807.8588563468403 310.4166313204836 806.7653419844759 315.167762687998L806.7653419844759 315.167762687998Q806.9161715516985 319.10818513169045 806.9161715516985 323.02975387948004Q806.9161715516985 326.9701763231725 806.9161715516985 330.91059876686495L806.9161715516985 330.91059876686495Q808.6695652706622 332.6828461817314 810.9885698667108 332.6828461817314ZM793.0587050631151 378.68586418464815L793.0587050631151 378.68586418464815Q793.8694139869369 378.68586418464815 794.7555376943702 377.53578873457525Q795.6416614018034 376.38571328450234 796.3203944543054 373.80275694581394L796.3203944543054 373.80275694581394Q797.2630792494471 370.2771158119839 797.6024457756981 364.71527552064765Q797.9418123019492 359.1534352293114 797.9418123019492 353.04483775679296L797.9418123019492 353.04483775679296Q797.9418123019492 346.3894831030923 797.6778605593096 340.0734949756427Q797.4139088166698 333.757506848193 797.1311033781272 329.5531326618609L797.1311033781272 329.5531326618609Q795.905613144443 332.4000407431889 794.4161711681191 336.3404631868814Q792.9267291917952 340.28088563057383 791.8332148294307 344.61723568822583L791.8332148294307 344.61723568822583Q790.4757487244266 349.50034292706005 789.6084787128963 354.5908408208254Q788.722355005463 359.68133871459077 788.722355005463 364.84725139196746L788.722355005463 364.84725139196746Q788.722355005463 369.18360144961946 789.5330639292849 373.5388052031743L789.5330639292849 373.5388052031743Q789.9478452391473 375.4430284893606 790.9659448179003 377.06444633700437Q791.9840443966535 378.68586418464815 793.0587050631151 378.68586418464815Z " fill="#317773" transform="matrix(1.049078304287177,0,0,1.049078304287177,0,-23.15923003164869)"/></g></svg>